<?xml version="1.0" encoding="UTF-8"?>
<svg width="32px" height="32px" viewBox="0 0 32 32" version="1.1" xmlns="http://www.w3.org/2000/svg" xmlns:xlink="http://www.w3.org/1999/xlink">
    <!-- Generator: Sketch 54.1 (76490) - https://sketchapp.com -->
    <title>ic_loader</title>
    <desc>Created with Sketch.</desc>
    <g id="ic_loader" stroke="none" stroke-width="1" fill="none" fill-rule="evenodd">
        <g id="Group-2" transform="translate(4.000000, 2.000000)">
            <path d="M12,26 C15.3137085,26 18.3137085,24.6568542 20.4852814,22.4852814 C22.6568542,20.3137085 24,17.3137085 24,14 C24,7.372583 18.627417,2 12,2 C8.6862915,2 5.6862915,3.34314575 3.51471863,5.51471863 C1.34314575,7.6862915 0,10.6862915 0,14 C0,20.627417 5.372583,26 12,26 Z" id="Oval-Copy-2" stroke="#FFFFFF" stroke-width="2.5" opacity="0.403139" stroke-linecap="round"></path>
            <g id="Group-6-Copy-2" transform="translate(14.000000, 12.000000) rotate(-360.000000) translate(-14.000000, -12.000000) translate(2.000000, 0.000000)" fill="#FFFFFF" fill-rule="nonzero">
                <path d="M19.3691649,23.3691649 C18.8810095,23.8573202 18.0895533,23.8573202 17.6013979,23.3691649 C17.1132425,22.8810095 17.1132425,22.0895533 17.6013979,21.6013979 C19.605214,19.5975818 20.75,16.8910037 20.75,14 C20.75,8.06293894 15.9370611,3.25 10,3.25 C7.10899631,3.25 4.4024182,4.394786 2.3986021,6.3986021 C1.91044674,6.88675747 1.11899051,6.88675747 0.630835149,6.3986021 C0.142679785,5.91044674 0.142679785,5.11899051 0.630835149,4.63083515 C3.09884446,2.16282584 6.43913992,0.75 10,0.75 C17.3177729,0.75 23.25,6.68222707 23.25,14 C23.25,17.5608601 21.8371742,20.9011555 19.3691649,23.3691649 Z" id="Shape"></path>
            </g>
        </g>
    </g>
</svg>