<?xml version="1.0" encoding="UTF-8"?>
<svg width="26px" height="6px" viewBox="0 0 26 6" version="1.1" xmlns="http://www.w3.org/2000/svg" xmlns:xlink="http://www.w3.org/1999/xlink">
    <!-- Generator: Sketch 52.5 (67469) - http://www.bohemiancoding.com/sketch -->
    <title>misc-menu-dots-vertical</title>
    <desc>Created with Sketch.</desc>
    <g id="Component-Categories" stroke="none" stroke-width="1" fill="none" fill-rule="evenodd">
        <g id="Breadcrumb-:-overflow-menu" transform="translate(-322.000000, -22.000000)" fill="#FFFFFF">
            <g id="components/breadcrumb/overflow">
                <g id="components/breadcrumb/elements/overflow-menu" transform="translate(309.000000, 0.000000)">
                    <g id="Group-2" transform="translate(1.000000, 0.000000)">
                        <path d="M25,17 C23.6192881,17 22.5,15.8807119 22.5,14.5 C22.5,13.1192881 23.6192881,12 25,12 C26.3807119,12 27.5,13.1192881 27.5,14.5 C27.5,15.8807119 26.3807119,17 25,17 Z M25,38 C23.6192881,38 22.5,36.8807119 22.5,35.5 C22.5,34.1192881 23.6192881,33 25,33 C26.3807119,33 27.5,34.1192881 27.5,35.5 C27.5,36.8807119 26.3807119,38 25,38 Z M25,27.5 C23.6192881,27.5 22.5,26.3807119 22.5,25 C22.5,23.6192881 23.6192881,22.5 25,22.5 C26.3807119,22.5 27.5,23.6192881 27.5,25 C27.5,26.3807119 26.3807119,27.5 25,27.5 Z" id="misc-menu-dots-vertical" transform="translate(25.000000, 25.000000) rotate(-90.000000) translate(-25.000000, -25.000000) "></path>
                    </g>
                </g>
            </g>
        </g>
    </g>
</svg>